PathFileType	4	(X/Y/Z)	./resultDataOpenSim/trcMotMarkerGrf/sub10/qtm-05-08.trc
DataRate	CameraRate	NumFrames	NumMarkers	Units	OrigDataRate	OrigDataStartFrame	OrigNumFrames
250.000000	250.000000	9	24	m	250.000000	67	529
Frame#	Time	L.Toe.Tip			R.Toe.Tip			L.Ankle.Lat			R.Ankle.Lat			L.Ankle.Med			R.Ankle.Med			L.Heel			R.Heel			L.Knee.Lat			R.Knee.Lat			L.Knee.Med			R.Knee.Med			L.Thigh.Upper			R.Thigh.Upper			L.ASIS			R.ASIS			V.Sacral			L.Acromium			R.Acromium			C7			L.Elbow			R.Elbow			L.Wrist.Lat			R.Wrist.Lat
		X1	Y1	Z1	X2	Y2	Z2	X3	Y3	Z3	X4	Y4	Z4	X5	Y5	Z5	X6	Y6	Z6	X7	Y7	Z7	X8	Y8	Z8	X9	Y9	Z9	X10	Y10	Z10	X11	Y11	Z11	X12	Y12	Z12	X13	Y13	Z13	X14	Y14	Z14	X15	Y15	Z15	X16	Y16	Z16	X17	Y17	Z17	X18	Y18	Z18	X19	Y19	Z19	X20	Y20	Z20	X21	Y21	Z21	X22	Y22	Z22	X23	Y23	Z23	X24	Y24	Z24

67	0.264	-1.4172433	0.048660498	-0.090040713	-0.73263156	0.039839267	0.054131736	-1.4275304	0.17962184	-0.13993527	-0.87520651	0.053671151	0.083032893	-1.407559	0.18153045	-0.059842585	-0.85536883	0.07964409	4.1946104e-05	-1.4727055	0.22776075	-0.092687464	-0.92360564	0.028817846	0.032774221	-1.1219803	0.41022179	-0.16458507	-0.85133902	0.44955748	0.11829851	-1.1041345	0.36756194	-0.051794096	-0.85066682	0.46132401	-0.0091278078	-1.0450414	0.78440078	-0.19097973	-0.97636218	0.84850431	0.18623179	-0.96951718	0.89295907	-0.13928533	-0.92581612	0.93117903	0.095536814	-1.1465619	0.92698519	0.0098865566	-0.98632953	1.3812942	-0.16548421	-1.0204215	1.3740302	0.15787214	-1.0870233	1.4096287	-0.013666912	-1.0648962	1.0391649	-0.22360813	-1.1660113	1.0622505	0.18698017	-0.87585723	0.88094246	-0.18320247	-1.1379146	0.83963321	0.27549222
68	0.268	-1.4133499	0.050443837	-0.090459048	-0.73258598	0.039798421	0.054059978	-1.418561	0.18245572	-0.14076416	-0.87497213	0.053582568	0.082925087	-1.3962353	0.18407881	-0.061244658	-0.85528793	0.079584913	-7.0318904e-05	-1.4607036	0.23235091	-0.095170033	-0.92361619	0.028791198	0.032756065	-1.1116643	0.4096841	-0.16522447	-0.84743532	0.44919999	0.11810922	-1.0929193	0.36674899	-0.052417379	-0.84840125	0.46097454	-0.009121028	-1.0387754	0.78425612	-0.19037488	-0.9714713	0.84895726	0.18684765	-0.9638576	0.89338137	-0.13855724	-0.92113255	0.93201151	0.096654671	-1.1415106	0.92749435	0.010215843	-0.9812678	1.3819296	-0.16510899	-1.0151404	1.3746273	0.15832183	-1.0820699	1.4102238	-0.013282446	-1.060444	1.0400736	-0.22346477	-1.1593027	1.0620269	0.18731125	-0.87191853	0.88108614	-0.18349601	-1.1308928	0.83972753	0.27616817
69	0.272	-1.4090183	0.052329681	-0.090970389	-0.73253354	0.03975434	0.053971772	-1.4094086	0.18519741	-0.14154558	-0.87477981	0.053488618	0.082817177	-1.3840814	0.18661212	-0.062794073	-0.85518958	0.079531809	-0.00018298296	-1.4487071	0.23667427	-0.097219464	-0.92363228	0.028766439	0.032740105	-1.1013087	0.40922248	-0.16580845	-0.84395393	0.44891679	0.11797734	-1.081764	0.36628989	-0.052910947	-0.84629168	0.46059293	-0.0091129058	-1.0325244	0.78423402	-0.18981984	-0.96663513	0.84933062	0.18740175	-0.9581276	0.89388194	-0.13786311	-0.91647013	0.93266151	0.097634096	-1.1364524	0.92797803	0.010585693	-0.97621459	1.3825517	-0.16478672	-1.0097898	1.3752158	0.15874038	-1.0771144	1.4108909	-0.012892645	-1.0560046	1.0409392	-0.22335694	-1.1525387	1.0617444	0.18754227	-0.86800393	0.88118653	-0.18385346	-1.1236876	0.83976038	0.27684134
70	0.276	-1.4041548	0.05436857	-0.091580801	-0.73247692	0.039701692	0.053871336	-1.3999189	0.18784178	-0.14231509	-0.87470505	0.053419533	0.082734875	-1.3725524	0.18901704	-0.064041098	-0.85506233	0.079476448	-0.00029848116	-1.437014	0.24060124	-0.098503706	-0.92365525	0.028743376	0.032727805	-1.0908794	0.40885332	-0.16633748	-0.84106109	0.44876255	0.1179666	-1.0707235	0.36616589	-0.053277044	-0.84433775	0.4601856	-0.0090997807	-1.0263188	0.78433375	-0.1892968	-0.96186466	0.84963882	0.18788625	-0.95241959	0.89443905	-0.13725042	-0.91164094	0.93306682	0.098376653	-1.131391	0.92843661	0.010983012	-0.97117185	1.3831616	-0.16451744	-1.0044641	1.3757969	0.15910936	-1.0721444	1.4116041	-0.01249954	-1.0516074	1.0417689	-0.22332092	-1.1460357	1.061514	0.18771622	-0.86410171	0.88125586	-0.18427251	-1.1163364	0.83977025	0.27744807
71	0.28	-1.3986698	0.056603295	-0.092291454	-0.73241504	0.039639264	0.053763539	-1.3900483	0.19039523	-0.14306067	-0.87475687	0.053375386	0.082681438	-1.362058	0.19128123	-0.064845505	-0.85489556	0.079415012	-0.00042449949	-1.4256541	0.24412256	-0.099217099	-0.92368531	0.028721981	0.032720128	-1.0803292	0.40859892	-0.16680399	-0.8386406	0.4487146	0.11807656	-1.0598347	0.36634086	-0.05351754	-0.84256247	0.4597823	-0.0090455798	-1.0201866	0.78454438	-0.18880231	-0.95715149	0.8499018	0.18830478	-0.94685635	0.89503239	-0.13677558	-0.90667073	0.93330706	0.098941803	-1.1263491	0.92888266	0.011399023	-0.96614637	1.3837624	-0.1643047	-0.99918305	1.3763803	0.15941833	-1.0671579	1.412359	-0.012103845	-1.0472718	1.0425804	-0.22338111	-1.1398462	1.0613896	0.18789288	-0.86020214	0.88130947	-0.18474475	-1.1088352	0.83978932	0.27797129
72	0.284	-1.3924507	0.059055655	-0.093097078	-0.73234521	0.039571694	0.053652797	-1.3799417	0.19285673	-0.14371794	-0.8748884	0.053341449	0.082646968	-1.3520701	0.19346208	-0.065363776	-0.85468848	0.079348337	-0.00056992829	-1.4145459	0.24729578	-0.099653061	-0.92372117	0.028701325	0.032715809	-1.0696358	0.4084849	-0.16719711	-0.8366006	0.44875037	0.11829457	-1.0491226	0.36676703	-0.053628353	-0.84092972	0.45941003	-0.0089221318	-1.0141302	0.78486042	-0.18834972	-0.95248368	0.85014347	0.1886656	-0.94148742	0.89566027	-0.13645791	-0.90163631	0.93349188	0.099377561	-1.1213466	0.9293249	0.011829416	-0.96114155	1.3843576	-0.16415082	-0.9939027	1.376978	0.15967564	-1.0621581	1.4131548	-0.011705424	-1.0429698	1.0433917	-0.22349772	-1.1336864	1.061391	0.18832464	-0.85631817	0.88135664	-0.18526539	-1.1011248	0.83983733	0.27844928
73	0.288	-1.3853704	0.061701571	-0.09398824	-0.73226875	0.039504462	0.053538385	-1.3697627	0.19523696	-0.14423415	-0.87504706	0.053311904	0.082623798	-1.3420882	0.19559935	-0.06575958	-0.8544572	0.079279583	-0.00073438021	-1.4036076	0.25020223	-0.099976363	-0.92376018	0.028680479	0.032712732	-1.058827	0.4085188	-0.16750279	-0.83490468	0.44883714	0.11859107	-1.0385595	0.36739928	-0.053625871	-0.83925244	0.4590833	-0.0087601482	-1.0081387	0.78528421	-0.1879547	-0.9478595	0.85038813	0.18897351	-0.9362849	0.89633547	-0.13627336	-0.89662658	0.93369591	0.099697741	-1.1163886	0.92976468	0.012272434	-0.95615518	1.3849526	-0.16404576	-0.98858534	1.3775981	0.15989523	-1.0571509	1.4139824	-0.011308326	-1.0386493	1.044211	-0.22358936	-1.1272389	1.0615205	0.18931033	-0.85248639	0.88140033	-0.18583828	-1.0931732	0.83992497	0.27891536
74	0.292	-1.3773537	0.064437215	-0.094943683	-0.73218861	0.039441225	0.05341591	-1.3595686	0.19756746	-0.14460386	-0.87519474	0.05328868	0.082608696	-1.3320311	0.19768113	-0.066063959	-0.85422865	0.07921296	-0.00090389219	-1.392817	0.25290667	-0.1002052	-0.92379955	0.028658508	0.032710581	-1.0479577	0.40868547	-0.16769928	-0.83339074	0.44888737	0.11890879	-1.0280069	0.36820795	-0.053570102	-0.8372362	0.45881611	-0.0086315612	-1.0022145	0.78581582	-0.18762146	-0.9432961	0.85064876	0.18922829	-0.93120334	0.89707176	-0.13619061	-0.89167961	0.93393553	0.099951861	-1.1114728	0.93020194	0.012723316	-0.95118719	1.3855537	-0.1639651	-0.98323198	1.3782454	0.16008365	-1.0521483	1.4148429	-0.010920359	-1.0342964	1.0450367	-0.22362011	-1.1204786	1.0617374	0.19079353	-0.84874927	0.88144257	-0.18646995	-1.0850604	0.84004608	0.27935244
75	0.296	-1.3684487	0.067092218	-0.09591102	-0.7321059	0.039386648	0.053287089	-1.3493512	0.19987399	-0.14486086	-0.87530692	0.053274022	0.082599607	-1.3219942	0.19968645	-0.066251469	-0.85402294	0.079152596	-0.0010612799	-1.382195	0.25543267	-0.10030523	-0.92383704	0.028634714	0.032708677	-1.037056	0.40897027	-0.16778112	-0.83177337	0.44882293	0.11919451	-1.0172144	0.36918731	-0.053571398	-0.83474087	0.45861631	-0.0085695986	-0.99638026	0.78644653	-0.18735136	-0.93882991	0.85092522	0.18942672	-0.92621242	0.89787321	-0.13619436	-0.88676171	0.93419232	0.10022386	-1.1066059	0.93065013	0.013158716	-0.94624738	1.3861668	-0.16388575	-0.97787034	1.3789229	0.16024313	-1.0471642	1.4157391	-0.010548175	-1.0299419	1.0458706	-0.22362649	-1.1136881	1.0619776	0.19232576	-0.84511281	0.88148964	-0.18714855	-1.0769331	0.84018782	0.27971016
